Coordinates
version=1
nRows=9
nColumns=63
inDegrees=yes

Units are S.I. units (second, meters, Newtons, ...)
If the header above contains a line with 'inDegrees', this indicates whether rotational values are in degrees (yes) or radians (no).

endheader
time	pelvis_tilt	pelvis_list	pelvis_rotation	pelvis_tx	pelvis_ty	pelvis_tz	hip_flexion_r	hip_adduction_r	hip_rotation_r	knee_angle_r	knee_angle_r_beta	ankle_angle_r	subtalar_angle_r	mtp_angle_r	hip_flexion_l	hip_adduction_l	hip_rotation_l	knee_angle_l	knee_angle_l_beta	ankle_angle_l	subtalar_angle_l	mtp_angle_l	L5_S1_Flex_Ext	L5_S1_Lat_Bending	L5_S1_axial_rotation	L4_L5_Flex_Ext	L4_L5_Lat_Bending	L4_L5_axial_rotation	L3_L4_Flex_Ext	L3_L4_Lat_Bending	L3_L4_axial_rotation	L2_L3_Flex_Ext	L2_L3_Lat_Bending	L2_L3_axial_rotation	L1_L2_Flex_Ext	L1_L2_Lat_Bending	L1_L2_axial_rotation	L1_T12_Flex_Ext	L1_T12_Lat_Bending	L1_T12_axial_rotation	Abs_r3	Abs_r2	Abs_r1	Abs_t1	Abs_t2	neck_flexion	neck_bending	neck_rotation	arm_flex_r	arm_add_r	arm_rot_r	elbow_flex_r	pro_sup_r	wrist_flex_r	wrist_dev_r	arm_flex_l	arm_add_l	arm_rot_l	elbow_flex_l	pro_sup_l	wrist_flex_l	wrist_dev_l
6.169492	8.813681	-0.296061	94.171927	0.248585	0.820284	0.487867	-3.764783	7.561937	1.425492	11.229409	0.195990	20.839182	-5.564315	0.000000	-5.107360	-9.241136	-3.465607	12.140495	0.211892	32.588466	2.619144	0.000000	-0.352628	1.796656	3.453223	-0.654866	2.389552	3.669049	-0.579333	4.368389	3.669049	-0.403019	4.368389	3.021570	-0.327451	3.663740	2.805743	-0.201492	2.783020	2.589917	-2.518789	20.324129	19.205788	0.000000	0.000000	4.794243	-16.146984	-12.056650	-26.839546	-25.522777	-47.219832	147.809538	65.686714	15.547130	10.008795	17.782929	8.026950	182.427000	0.088776	0.992754	-69.816226	-24.136333
6.186441	8.785130	0.211365	94.297021	0.248612	0.820797	0.490178	-4.109391	7.595626	1.455354	11.283833	0.196940	20.865959	-5.744573	0.000000	-5.134062	-9.298097	-3.286624	12.788231	0.223197	32.753990	2.470545	0.000000	-0.405496	1.826217	3.878865	-0.753047	2.428869	4.121294	-0.666190	4.440265	4.121294	-0.463442	4.440265	3.394007	-0.376544	3.724023	3.151578	-0.231701	2.828811	2.909149	-2.896419	20.658537	21.573082	0.000000	0.000000	4.085947	-16.311588	-14.241859	-29.843300	-23.394959	-48.837034	145.461436	66.726509	16.544075	10.004978	20.112621	9.515859	182.787057	0.086114	0.976176	-69.823096	-24.185232
6.203390	8.722038	0.860816	94.431362	0.248712	0.821268	0.492879	-4.585538	7.617487	1.496192	11.342129	0.197957	20.993810	-5.936256	0.000000	-5.238106	-9.327502	-2.986385	13.540742	0.236331	32.976973	2.186529	0.000000	-0.470750	1.849885	4.396414	-0.874230	2.460347	4.671190	-0.773396	4.497811	4.671190	-0.538020	4.497811	3.846862	-0.437139	3.772286	3.572086	-0.268987	2.865472	3.297310	-3.362522	20.926271	24.451536	0.000000	0.000000	3.269062	-16.139327	-16.929585	-33.104517	-20.688488	-50.436583	141.909876	68.276538	16.671118	9.660359	23.192123	11.515184	182.891488	0.083118	0.947413	-69.829701	-24.222031
6.220339	8.609628	1.603985	94.507929	0.249035	0.821594	0.495692	-5.158612	7.609147	1.682555	11.418527	0.199291	21.217610	-6.245133	0.000000	-5.424310	-9.307114	-2.670385	14.354886	0.250540	33.253976	1.806235	0.000000	-0.543690	1.862371	4.984028	-1.009686	2.476954	5.295530	-0.893228	4.528170	5.295530	-0.621383	4.528170	4.361025	-0.504870	3.797748	4.049523	-0.310664	2.884813	3.738021	-3.883522	21.067517	27.719669	0.000000	0.000000	2.372919	-15.644438	-19.966769	-36.468966	-17.518594	-51.813201	137.366632	70.167953	15.975459	8.884919	26.929985	13.892895	182.509170	0.080083	0.910896	-69.835528	-24.247116
6.237288	8.426496	2.397304	94.524519	0.249657	0.821687	0.498358	-5.805135	7.550385	2.012419	11.510628	0.200898	21.557854	-6.665887	0.000000	-5.682538	-9.217372	-2.364507	15.197730	0.265250	33.581413	1.365737	0.000000	-0.619724	1.858427	5.610003	-1.150889	2.471707	5.960628	-1.018145	4.518579	5.960628	-0.708283	4.518579	4.908753	-0.575476	3.789704	4.558127	-0.354110	2.878703	4.207502	-4.426627	21.022894	31.201153	0.000000	0.000000	1.459444	-14.848057	-23.199478	-39.792853	-14.008231	-52.747132	132.146639	72.320920	14.404029	7.724843	31.233163	16.506031	181.609795	0.077144	0.870918	-69.840695	-24.267351
6.254237	8.164475	3.218719	94.474222	0.250643	0.821507	0.500671	-6.523659	7.432945	2.502594	11.603475	0.202519	22.004761	-7.207151	0.000000	-6.027425	-9.056445	-2.136083	16.026267	0.279711	33.959864	0.944633	0.000000	-0.696160	1.837364	6.250018	-1.292839	2.443694	6.640645	-1.143722	4.467367	6.640645	-0.795642	4.467367	5.468766	-0.646454	3.746753	5.078140	-0.397786	2.846077	4.687514	-4.972603	20.784630	34.760727	0.000000	0.000000	0.595109	-13.784840	-26.465725	-42.930406	-10.265570	-53.151082	126.638126	74.692110	12.192708	6.492011	35.989259	19.226284	180.292755	0.074301	0.831405	-69.845784	-24.289787
6.271186	7.807868	4.038250	94.399915	0.251997	0.821025	0.502509	-7.291783	7.253232	3.131473	11.696640	0.204145	22.556537	-7.901616	0.000000	-6.439695	-8.817569	-1.945619	16.817347	0.293518	34.385277	0.582740	0.000000	-0.770023	1.800167	6.885755	-1.430009	2.394222	7.316114	-1.265070	4.376926	7.316114	-0.880059	4.376926	6.025035	-0.715043	3.670901	5.594676	-0.439991	2.788459	5.164316	-5.500194	20.363850	38.296501	0.000000	0.000000	-0.150422	-12.522598	-29.618937	-45.762526	-6.372220	-52.979179	121.181442	77.297551	9.314478	5.138259	41.066538	21.971862	178.613341	0.071460	0.802467	-69.851474	-24.318014
6.288136	7.360264	4.866185	94.292031	0.253724	0.820288	0.503781	-8.136403	7.009261	3.882220	11.769019	0.205408	23.193632	-8.683378	0.000000	-6.964804	-8.502836	-1.815215	17.519080	0.305766	34.825202	0.260696	0.000000	-0.839897	1.753060	7.522155	-1.559772	2.331570	7.992290	-1.379866	4.262390	7.992290	-0.959918	4.262390	6.581886	-0.779928	3.574840	6.111751	-0.479917	2.715490	5.641617	-5.999298	19.830965	41.835972	0.000000	0.000000	-0.748998	-11.112449	-32.603348	-48.293028	-2.379115	-52.446421	116.186775	80.121181	5.866166	3.929405	46.333913	24.674194	176.690437	0.068506	0.782858	-69.858044	-24.351686
6.305085	6.846659	5.715378	94.222480	0.255757	0.819381	0.504534	-9.070171	6.741514	4.695080	11.805365	0.206042	23.855562	-9.589705	0.000000	-7.589974	-8.159942	-1.721759	18.145241	0.316694	35.294555	0.058978	0.000000	-0.906689	1.704727	8.136587	-1.683812	2.267286	8.645124	-1.489600	4.144872	8.645124	-1.036255	4.144872	7.119513	-0.841952	3.476278	6.610977	-0.518082	2.640621	6.102440	-6.476390	19.284207	45.253255	0.000000	0.000000	-1.217560	-9.673771	-35.254491	-50.397948	1.646575	-51.693348	111.840490	83.186175	2.032159	2.653731	51.658375	27.273907	174.442044	0.065369	0.774031	-69.865627	-24.390657
